<svg xmlns="http://www.w3.org/2000/svg" xmlns:xlink="http://www.w3.org/1999/xlink" version="1.1" x="0px" y="0px" viewBox="0 0 128 160" style="enable-background:new 0 0 128 128;" xml:space="preserve"><polygon points="31.1591873,72.4794998 29.0400009,87.3486023 34,95.5653992 38.9599991,87.3486023 36.840786,72.4794998 "/><path d="M33.4394875,62.8125h1.3710022c2.9453964,0,5.7216988-0.7158012,8.1895103-1.9561005v-2.2705002  C40.5897865,59.9921989,37.7968864,60.8125,34.8104897,60.8125h-1.3710022C24.443388,60.8125,17.125,53.4940987,17.125,44.4980011  V24.5049c1.5360889,0.6415997,3.3407879,0.9951,5.3222885,0.9951c2.0331993,0,4.0937119-0.3623009,6.1239986-1.0781002  c2.2969017-0.8095989,4.352499-2.0126991,5.9979992-3.5039005c1.4267998,1.0595016,3.089901,1.9375,4.8594017,2.5615005  c2.0303116,0.7147999,4.089901,1.0771008,6.1231003,1.0771008c2.089798,0,3.9852982-0.3896008,5.5732117-1.0995998v3.1806984  c0.3778877,0.0732002,0.7528877,0.1641006,1.1200867,0.2861004c0.2461014-0.6406002,0.5429993-1.2489986,0.8799133-1.8251991  v-2.8290997c1.1093864-0.8652,1.9442863-1.9521008,2.4257889-3.217701c0.7098999-1.8789005,0.5790977-3.9580002-0.3770027-6.0136995  c-1.4902-3.2041006-4.8583984-5.9912004-9.0107002-7.4551001C44.1259995,4.8642998,42.0604858,4.5,40.0243874,4.5  c-2.6708984,0-5.1123009,0.6543002-6.9491997,1.8516002C31.5653877,5.7549,29.813488,5.4424,27.9687881,5.4424  c-2.0352001,0-4.0986996,0.3642001-6.1308994,1.0830002c-4.1533012,1.4638996-7.5215006,4.2509995-9.0117006,7.4551001  c-0.9560995,2.0565996-1.0868998,4.1356993-0.3759995,6.0166006c0.5156002,1.3563995,1.4424,2.5038986,2.6748114,3.3973999  v21.1035004C15.125,54.5966988,23.3407879,62.8125,33.4394875,62.8125z M23.4160004,9.6864996  c0.5243874-0.1688995,1.0878887,0.1231003,1.255888,0.6504002c0.1669998,0.5254002-0.1240005,1.0879002-0.6504002,1.2559004  c-3.799799,1.2089996-5.9335995,3.6717997-5.4717007,5.1259995c0.1670017,0.5263004-0.1239986,1.0888004-0.6503983,1.2558002  c-0.1006012,0.0321999-0.2031002,0.0468998-0.3027,0.0468998c-0.4238014,0-0.8174-0.2714996-0.9531002-0.6973  C15.755888,14.5321999,18.7304878,11.1777,23.4160004,9.6864996z"/><path d="M76.3270874,26.8477001c-0.3759003,0-0.7528992,0.0272999-1.1288986,0.0830002  C73.4677887,22.5723,69.4403839,20,64.2509995,20c-5.6201134,0-9.9571114,3.1903992-11.3985138,8.2441006  c-1.0624847-0.5058002-2.2098999-0.7695007-3.3797989-0.7695007C44.8007889,27.4745998,41,31.6259995,41,36.7285004  c0,2.830101,1.1679993,5.3633003,3,7.0653992v21.1416016C44,75.0342026,52.215786,83.25,62.3144875,83.25h1.3709984  C73.7841873,83.25,82,75.0342026,82,64.9355011V43.4726982c0,0,0,0-0.0009995,0.0009003  C83.8330002,41.7344017,85,39.1767998,85,36.3223C85,31.0977001,81.1093903,26.8477001,76.3270874,26.8477001z M44.8124886,36.5625  c0-2.8945007,2.3555107-5.25,5.25-5.25c0.5527,0,1,0.4473,1,1s-0.4473,1-1,1c-1.7919998,0-3.25,1.4580002-3.25,3.25  c0,0.5527-0.4473,1-1,1S44.8124886,37.1152,44.8124886,36.5625z M80,64.9355011C80,73.9316025,72.6815872,81.25,63.6854858,81.25  h-1.3709984C53.3183861,81.25,46,73.9316025,46,64.9355011V45.1767998c-0.0019989-0.0009995-0.0039139-0.0029984-0.006813-0.0038986  C47.0565872,45.6991997,48.2323875,46,49.4726868,46c2.8212013,0,5.4345016-1.5419998,6.9863129-4.0273018  c2.1356888,2.0361023,4.906189,3.1796036,7.7919998,3.1796036c2.2070007,0,4.3221893-0.655201,6.1718903-1.9033012  C72,44.8788986,74.1044846,45.7969017,76.3270874,45.7969017c1.3134995,0,2.5557022-0.330101,3.6729126-0.9043007V64.9355011z"/><polygon points="60.1630859,93.1396027 58.0380859,108.5342026 63,117.0195007 67.9618835,108.5342026 65.8368835,93.1396027 "/><path d="M64.2558899,85.5h-2.5118027C43.6894875,85.5,29,100.1894989,29,118.2441025V123.5c0,0.5526962,0.4472885,1,1,1h66  c0.5526886,0,1-0.4473038,1-1v-5.2558975C97,100.1894989,82.3104858,85.5,64.2558899,85.5z M69.8632889,109.2451019l-6,10.2597961  C63.6835861,119.8115005,63.3554878,120,63,120c-0.3555145,0-0.6836128-0.1884995-0.8633118-0.4951019l-6-10.2597961  c-0.1133003-0.1932983-0.1581993-0.419899-0.1268997-0.6416016l2.2352982-16.1903992  c-1.0830002-1.1288986-1.7548981-2.6328049-1.7548981-4.294899c0-0.455101,0.0508118-0.9063034,0.1503983-1.3418045  c0.1240005-0.5381012,0.6591988-0.8779984,1.1982994-0.7509995c0.5381126,0.1230011,0.8740005,0.6592026,0.7509003,1.198204  c-0.0663986,0.2881012-0.0995979,0.5898972-0.0995979,0.8945999c0,1.1796951,0.5009995,2.2421951,1.3028107,3.0214005h6.4140015  c0.8017883-0.7792053,1.3027878-1.8417053,1.3027878-3.0214005c0-0.3047028-0.0332031-0.6064987-0.0996017-0.8945999  c-0.1231003-0.5390015,0.2128143-1.0752029,0.7509003-1.198204c0.535202-0.1269989,1.0743027,0.2128983,1.1983032,0.7509995  c0.0996094,0.4355011,0.1503983,0.8867035,0.1503983,1.3418045c0,1.6620941-0.6718979,3.1660004-1.7548981,4.294899  l2.2352982,16.1903992C70.0214844,108.8252029,69.9765854,109.0518036,69.8632889,109.2451019z"/><path d="M117.1083832,40.4883003c2.6504059-2.8799019,4.1289063-8.4746017,3.860405-14.6026001  c-0.2471008-5.5116997-1.8487015-10.4716005-4.3007889-13.3652c-0.4229126-3.7685003-3.9961166-6.6709003-8.3037109-6.6709003  c-1.5596008,0-3.0410995,0.3710999-4.3262024,1.0771999C100.9091873,4.7725,95.75,3.5,90.0351868,3.5  C80.4823837,3.5,73,7.085,73,11.6620998c0,1.4198999,0.7226868,2.7432003,2,3.8944998v8.8193998  c0.305687,0.4687004,0.5830002,0.9638004,0.8270874,1.4863014c0.1669998-0.0098,0.3330994-0.0146008,0.5-0.0146008  c0.2276001,0,0.4493027,0.0205002,0.6729126,0.0370998v-8.9190006c3.1015854,1.7578011,7.7470856,2.8593998,13.0351868,2.8593998  c4.3457031,0,8.5233994-0.7685986,11.6259003-2.125c0.7246017,0.8730011,1.6612015,1.5967007,2.7314987,2.1103001  c-0.4023972,2.1241016-0.551796,4.3956013-0.444397,6.7657013c0.3349991,7.6279011,3.2841949,13.8281002,7.0518112,15.477499  v2.6318016C111,53.6815987,103.6815872,61,94.6854858,61h-1.3710022C89.4042892,61,85.8134842,59.6152,83,57.3125v2.4940987  C85.9403839,61.8184013,89.491188,63,93.3144836,63h1.3710022C104.7841873,63,113,54.7841988,113,44.6855011V42.5h-0.0127106  l0.1864929-0.0038986C114.5897827,42.4413986,115.9501877,41.7461014,117.1083832,40.4883003z M88.2870865,8.9618998  c-5.1356964,0-8.9726028,1.8242006-8.9726028,3.4551001c0,0.5527-0.4472961,1-1,1c-0.5527954,0-1-0.4473-1-1  c0-3.1104002,4.7168045-5.4550996,10.9726028-5.4550996c0.5527039,0,1,0.4473,1,1S88.8397903,8.9618998,88.2870865,8.9618998z"/><polygon points="91.1591873,72.4794998 89.0400009,87.3486023 94,95.5653992 98.9599991,87.3486023 96.8407898,72.4794998 "/><path d="M95.2558899,64.5h-2.5118027c-3.4120865,0-6.7030869,0.527298-9.7977982,1.5  c-0.5292892,9.6288986-8.1240005,17.3936005-17.6836014,18.1728973c0-0.0009995-0.0009995-0.0019989-0.0009995-0.0029984  C64.7401886,84.2128983,64.2167892,84.25,63.6845856,84.25h-0.9853973h-0.3838005  c-10.4785004,0-19.0155983-8.392601-19.2900009-18.8057022C40.5331879,64.8349991,37.9335861,64.5,35.2558861,64.5h-2.5117989  C14.6894884,64.5,0,79.1894989,0,97.2441025V102.5c0,0.5526962,0.4472888,1,1,1h30.3983879  c0.8829002-1.8096008,1.9248009-3.5263977,3.103611-5.1377029C34.3524895,98.4502029,34.1796875,98.5,34,98.5  c-0.3506126,0-0.6748123-0.1836014-0.856411-0.4833984l-6-9.9394989c-0.1192017-0.1972046-0.1661015-0.4296036-0.1338005-0.6572037  l2.2313995-15.6592026c-1.0800991-1.0985947-1.7509995-2.5614929-1.7509995-4.1776962  c0-0.4442978,0.0508118-0.8867035,0.1513996-1.3125c0.1278992-0.5391006,0.6660004-0.8682022,1.2031002-0.7441025  c0.5380993,0.1268997,0.8710995,0.6660004,0.7441998,1.2031021c-0.0655003,0.2763977-0.0986996,0.5634995-0.0986996,0.8535004  c0,1.1298981,0.4951992,2.1493988,1.2919998,2.8964996h6.4356003c0.7967987-0.7471008,1.2919998-1.7666016,1.2919998-2.8964996  c0-0.2900009-0.0331993-0.5771027-0.0987015-0.8535004c-0.1268997-0.5371017,0.2061005-1.0762024,0.7442017-1.2031021  c0.535099-0.1240997,1.0751991,0.2050018,1.2030983,0.7441025c0.1006126,0.4257965,0.1514015,0.8682022,0.1514015,1.3125  c0,1.6162033-0.6709023,3.0791016-1.7509995,4.1776962l2.2313995,15.6592026  c0.032299,0.2276001-0.0146027,0.4599991-0.1338005,0.6572037l-5.6562004,9.3702011  C41.3827896,89.5731964,50.9794884,84.5,61.7440872,84.5h0.8379135h1.6738892c13.322197,0,24.8631973,7.7617035,30.3456955,19H127  c0.5526886,0,1-0.4473038,1-1v-5.2558975C128,79.1894989,113.3104858,64.5,95.2558899,64.5z M100.8563843,88.0771027l-6,9.9394989  C94.6747894,98.3163986,94.3505859,98.5,94,98.5c-0.3506165,0-0.6748123-0.1836014-0.8564148-0.4833984l-6-9.9394989  c-0.1192017-0.1972046-0.1660995-0.4296036-0.1337967-0.6572037l2.2313995-15.6592026  c-1.080101-1.0985947-1.7509995-2.5614929-1.7509995-4.1776962c0-0.4442978,0.0508118-0.8867035,0.1513977-1.3125  c0.1278992-0.5391006,0.6660004-0.8682022,1.2031021-0.7441025c0.5381012,0.1268997,0.8711014,0.6660004,0.7442017,1.2031021  c-0.065506,0.2763977-0.0987015,0.5634995-0.0987015,0.8535004c0,1.1298981,0.4952011,2.1493988,1.2919998,2.8964996h6.4356003  c0.7967987-0.7471008,1.2919998-1.7666016,1.2919998-2.8964996c0-0.2900009-0.0332031-0.5771027-0.0987015-0.8535004  c-0.1268997-0.5371017,0.2061005-1.0762024,0.7442017-1.2031021c0.5360947-0.1240997,1.0751953,0.2050018,1.2030945,0.7441025  c0.1006165,0.4257965,0.1514053,0.8682022,0.1514053,1.3125c0,1.6162033-0.6708984,3.0791016-1.7509995,4.1776962  l2.2313995,15.6592026C101.0224838,87.6474991,100.9755859,87.8798981,100.8563843,88.0771027z"/><text x="0" y="143" fill="#000000" font-size="5px" font-weight="bold" font-family="'Helvetica Neue', Helvetica, Arial-Unicode, Arial, Sans-serif"></text><text x="0" y="148" fill="#000000" font-size="5px" font-weight="bold" font-family="'Helvetica Neue', Helvetica, Arial-Unicode, Arial, Sans-serif"></text></svg>