<svg width="24" height="24" viewBox="0 0 24 24" fill="none" xmlns="http://www.w3.org/2000/svg">
<path d="M15.8647 8.03079L16.7068 9.04826C17.4291 8.45061 17.8601 7.44275 17.8601 6.35249C17.8601 5.26224 17.4291 4.25452 16.7068 3.65686L15.8647 4.67419C16.2809 5.01875 16.5393 5.66173 16.5393 6.35249C16.5393 7.04326 16.2809 7.68637 15.8647 8.03079Z" fill="white"/>
<path d="M18.2509 0.738281L17.4087 1.75575C18.5771 2.72269 19.3027 4.48407 19.3027 6.35257C19.3027 8.22079 18.577 9.98204 17.4087 10.9492L18.2509 11.9666C19.7364 10.7369 20.6234 8.63814 20.6234 6.35257C20.6234 4.06686 19.7364 1.96806 18.2509 0.738281Z" fill="white"/>
<path d="M7.81741 8.03068C7.40131 7.68626 7.14285 7.04315 7.14285 6.35239C7.14285 5.66162 7.40131 5.01865 7.81727 4.67422L6.97504 3.65662C6.2531 4.25441 5.82202 5.26213 5.82202 6.35239C5.82202 7.44264 6.2531 8.4505 6.97504 9.04816L7.81741 8.03068Z" fill="white"/>
<path d="M4.37929 6.35257C4.37929 4.48407 5.10507 2.72269 6.27319 1.75575L5.43109 0.738281C3.94546 1.96806 3.05859 4.06686 3.05859 6.35257C3.05859 8.63814 3.94546 10.7369 5.43109 11.9666L6.27319 10.9492C5.10507 9.98204 4.37929 8.22079 4.37929 6.35257Z" fill="white"/>
<path d="M8.93262 6.35262C8.93262 4.74889 10.2371 3.44385 11.841 3.44385C13.4448 3.44385 14.7492 4.74889 14.7492 6.35262C14.7492 7.64584 13.9005 8.74406 12.7307 9.12103L14.3873 14.7083H9.34117L10.9939 9.13463C9.80218 8.77098 8.93262 7.66164 8.93262 6.35262Z" fill="white"/>
<path d="M15.4843 18.4065H8.24463L8.94954 16.0291H14.7794L15.4843 18.4065Z" fill="white"/>
<path d="M16.9167 23.2383L15.8758 19.7273H7.85275L6.81152 23.2383H16.9167Z" fill="white"/>
</svg>
