<svg width="16" height="16" viewBox="0 0 16 16" fill="none" xmlns="http://www.w3.org/2000/svg">
<path fill-rule="evenodd" clip-rule="evenodd" d="M8 16C12.4183 16 16 12.4183 16 8C16 3.58172 12.4183 0 8 0C3.58172 0 0 3.58172 0 8C0 12.4183 3.58172 16 8 16ZM3 6.125C3 4.39937 4.39937 3 6.125 3H9.875C11.6006 3 13 4.39937 13 6.125V9.875C13 11.6006 11.6006 13 9.875 13H6.125C4.39937 13 3 11.6006 3 9.875V6.125ZM9.875 12.0625C11.0813 12.0625 12.0625 11.0813 12.0625 9.875V6.125C12.0625 4.91875 11.0813 3.9375 9.875 3.9375H6.125C4.91875 3.9375 3.9375 4.91875 3.9375 6.125V9.875C3.9375 11.0813 4.91875 12.0625 6.125 12.0625H9.875ZM8 5.5C6.61937 5.5 5.5 6.61937 5.5 8C5.5 9.38062 6.61937 10.5 8 10.5C9.38062 10.5 10.5 9.38062 10.5 8C10.5 6.61937 9.38062 5.5 8 5.5ZM8 9.5625C7.13875 9.5625 6.4375 8.86125 6.4375 8C6.4375 7.13812 7.13875 6.4375 8 6.4375C8.86125 6.4375 9.5625 7.13812 9.5625 8C9.5625 8.86125 8.86125 9.5625 8 9.5625ZM11.0207 10.6875C11.0207 10.8715 10.8716 11.0206 10.6876 11.0206C10.5036 11.0206 10.3545 10.8715 10.3545 10.6875C10.3545 10.5035 10.5036 10.3544 10.6876 10.3544C10.8716 10.3544 11.0207 10.5035 11.0207 10.6875Z" fill="#DBA834"/>
</svg>
