<svg width="56" height="56" viewBox="0 0 56 56" fill="none" xmlns="http://www.w3.org/2000/svg">
<g clip-path="url(#clip0)">
<path d="M18.5 21.243L2.756 5.49902L0.5 6.00002V49L2.599 48.534L18.5 32.632V21.243Z" fill="#4FBA6E"/>
<path d="M9.87195 46.917L18.4999 45V38.289L9.87195 46.917Z" fill="#48A0DC"/>
<path d="M18.5 2L7.38403 4.47L18.5 15.586V2Z" fill="#4FBA6E"/>
<path d="M49.949 1.18402L35.5 6.00002V15.632L49.949 1.18402Z" fill="#4FBA6E"/>
<path d="M35.5 21.289V48L53.5 41V3.289L35.5 21.289Z" fill="#48A0DC"/>
<path d="M27.023 24.109L35.5 15.632V6L18.5 2V15.586L27.023 24.109Z" fill="#4AA461"/>
<path d="M18.5 21.243V32.632L24.195 26.938L18.5 21.243Z" fill="#4AA461"/>
<path d="M18.5 38.289V45L35.5 48V21.289L18.5 38.289Z" fill="#51A2C9"/>
<path d="M18.5 15.586L7.38398 4.46997L2.75598 5.49897L18.5 21.243V15.586Z" fill="#F3D55A"/>
<path d="M18.5 32.632L2.599 48.534L9.872 46.917L18.5 38.289V32.632Z" fill="#F3D55A"/>
<path d="M35.5 21.289L53.5 3.289V0L49.949 1.184L35.5 15.632V21.289Z" fill="#F3D55A"/>
<path d="M27.023 24.109L18.5 15.586V21.243L24.195 26.938L18.5 32.632V38.289L35.5 21.289V15.632L27.023 24.109Z" fill="#DCBD56"/>
<path d="M41.277 50.61C46.6871 50.61 51.073 46.2242 51.073 40.814C51.073 35.4038 46.6871 31.018 41.277 31.018C35.8668 31.018 31.481 35.4038 31.481 40.814C31.481 46.2242 35.8668 50.61 41.277 50.61Z" fill="#D0E8F9"/>
<path d="M44.83 31.693L32.156 44.367C32.862 46.177 34.086 47.724 35.651 48.826L49.289 35.188C48.187 33.623 46.64 32.399 44.83 31.693Z" fill="#EAF6FD"/>
<path d="M55.223 54.309L49.253 48.065C50.999 46.146 52.073 43.607 52.073 40.814C52.073 34.861 47.23 30.018 41.277 30.018C35.324 30.018 30.481 34.861 30.481 40.814C30.481 46.767 35.324 51.61 41.277 51.61C43.719 51.61 45.966 50.786 47.776 49.414L53.777 55.69C53.974 55.896 54.236 56 54.5 56C54.749 56 54.997 55.908 55.191 55.723C55.59 55.341 55.605 54.708 55.223 54.309ZM32.482 40.814C32.482 35.964 36.428 32.018 41.278 32.018C46.128 32.018 50.074 35.964 50.074 40.814C50.074 45.664 46.128 49.61 41.278 49.61C36.428 49.61 32.482 45.665 32.482 40.814Z" fill="#8697CB"/>
</g>
<defs>
<clipPath id="clip0">
<rect width="56" height="56" fill="white"/>
</clipPath>
</defs>
</svg>
