<svg width="17" height="29" viewBox="0 0 17 29" fill="none" xmlns="http://www.w3.org/2000/svg">
<path fill-rule="evenodd" clip-rule="evenodd" d="M16.5714 8.28571C16.5714 9.05285 16.4672 9.79563 16.2721 10.5007L16.3414 10.5874L8.28586 29.0001L1.50892 13.0543C0.558308 11.7059 0 10.061 0 8.28571C0 3.70964 3.70964 0 8.28571 0C12.8618 0 16.5714 3.70964 16.5714 8.28571ZM8.28574 11.5079C10.3195 11.5079 11.9683 9.85915 11.9683 7.82534C11.9683 5.79153 10.3195 4.1428 8.28574 4.1428C6.25193 4.1428 4.6032 5.79153 4.6032 7.82534C4.6032 9.85915 6.25193 11.5079 8.28574 11.5079Z" fill="#F71011"/>
</svg>
