<svg width="32" height="32" viewBox="0 0 32 32" fill="none" xmlns="http://www.w3.org/2000/svg">
<path d="M21.6553 5.39521L21.959 7.12648C22.6988 6.99665 23.527 7.28504 24.121 7.87904C24.715 8.47303 25.0034 9.30159 24.8735 10.0413L26.605 10.3447C26.8355 9.03004 26.3715 7.64375 25.3641 6.63612C24.3563 5.62849 22.97 5.1645 21.6553 5.39521Z" fill="white"/>
<path d="M28.295 3.70503C26.2127 1.62257 23.3619 0.661634 20.6692 1.13368L20.973 2.86494C23.1021 2.49159 25.3745 3.27034 27.0523 4.94795C28.7299 6.62557 29.5086 8.89809 29.1351 11.0271L30.8663 11.3308C31.3386 8.63808 30.3775 5.78731 28.295 3.70503Z" fill="white"/>
<path d="M17.1444 9.51037C16.7663 9.8894 16.4797 10.3347 16.293 10.8198L10.3801 13.0438L11.7446 14.4084L16.0879 12.7748C16.1653 13.2664 16.338 13.7339 16.5975 14.155L14.0479 16.7114L15.2907 17.9543L17.8402 15.3981C18.2703 15.6627 18.742 15.8334 19.226 15.9099L17.5917 20.2552L18.9562 21.6197L21.181 15.7043C21.6609 15.5201 22.1108 15.2354 22.4966 14.8484C23.2096 14.1338 23.6014 13.184 23.6 12.1746C23.5987 11.1649 23.2043 10.2162 22.4894 9.50341C21.014 8.03179 18.6162 8.03491 17.1444 9.51037Z" fill="white"/>
<path d="M0.984385 18.051C0.988963 21.5186 2.34358 24.7768 4.79866 27.2253C7.24989 29.6699 10.5044 31.0156 13.9655 31.0156H13.983C17.1883 31.0116 20.2143 29.8529 22.5885 27.7378L4.26216 9.4115C2.13942 11.7943 0.980357 14.8338 0.984385 18.051Z" fill="white"/>
</svg>
