<svg width="16" height="16" viewBox="0 0 16 16" fill="none" xmlns="http://www.w3.org/2000/svg">
<path d="M8 0C3.58171 0 0 3.58171 0 8C0 12.4183 3.58171 16 8 16C12.4183 16 16 12.4183 16 8C16 3.58171 12.4183 0 8 0ZM12.8376 5.86656C12.8414 5.961 12.8434 6.05561 12.8434 6.15071C12.8434 9.56808 10.2429 13.1028 5.89127 13.1028C4.56102 13.1028 3.2658 12.7232 2.14572 12.0048C2.12231 11.9899 2.11265 11.961 2.12198 11.9349C2.13131 11.9091 2.15767 11.893 2.18468 11.8961C2.37258 11.9186 2.56475 11.9297 2.75544 11.9297C3.7904 11.9297 4.77021 11.6097 5.59894 11.0026C4.60555 10.9188 3.75178 10.2465 3.44471 9.28753C3.43832 9.26756 3.44291 9.24579 3.45665 9.23008C3.47057 9.21436 3.49185 9.20749 3.51214 9.21125C3.78746 9.26347 4.06736 9.26691 4.3371 9.22304C3.31261 8.90468 2.59257 7.945 2.59257 6.85242L2.5929 6.82066C2.59339 6.79988 2.60469 6.78089 2.62269 6.77058C2.64053 6.7601 2.66279 6.75994 2.6808 6.77009C2.94793 6.91838 3.24354 7.01365 3.54684 7.05015C2.95808 6.58087 2.61238 5.8695 2.61238 5.10854C2.61238 4.66954 2.72859 4.23808 2.94858 3.86079C2.9584 3.84393 2.97575 3.83313 2.99507 3.83165C3.01455 3.82969 3.03337 3.8382 3.04565 3.85326C4.25068 5.33131 6.0232 6.24139 7.91865 6.35842C7.88706 6.19933 7.87102 6.03531 7.87102 5.86983C7.87102 4.50128 8.98439 3.38807 10.3528 3.38807C11.0255 3.38807 11.6757 3.66453 12.1417 4.14772C12.6669 4.04068 13.1673 3.84753 13.6295 3.57352C13.6507 3.56092 13.6772 3.56289 13.6967 3.57811C13.7156 3.59349 13.7235 3.61903 13.716 3.6426C13.5593 4.1325 13.2539 4.55988 12.8435 4.86842C13.23 4.80115 13.605 4.68755 13.9617 4.52927C13.9856 4.5183 14.0139 4.52518 14.0311 4.54531C14.0481 4.56561 14.0496 4.59458 14.0348 4.61651C13.7099 5.10281 13.3073 5.52331 12.8376 5.86656Z" fill="#DBA834"/>
</svg>
