<svg width="25" height="25" viewBox="0 0 25 25" fill="none" xmlns="http://www.w3.org/2000/svg">
<g clip-path="url(#clip0)">
<path d="M24.8499 12.8455C24.5795 12.3647 23.9485 12.1844 23.4377 12.4849L20.0123 14.4681L19.1409 14.9789V19.7264L19.9522 20.2072C19.9822 20.2072 19.9822 20.2372 20.0123 20.2372L23.3776 22.1903C23.5278 22.3105 23.7382 22.3706 23.9485 22.3706C24.5194 22.3706 24.9701 21.9199 24.9701 21.349V17.3226L25.0002 13.3563C25.0002 13.176 24.9701 12.9957 24.8499 12.8455Z" fill="white"/>
<path d="M4.83799 11.3131C7.51224 11.3131 9.67567 9.14962 9.67567 6.47538C9.67567 3.80113 7.51224 1.6377 4.83799 1.6377C2.16374 1.6377 0.000305077 3.80113 0.000305077 6.47538C-0.0297426 9.14962 2.16374 11.3131 4.83799 11.3131ZM4.83799 4.49223C5.94975 4.49223 6.82114 5.39366 6.82114 6.47538C6.82114 7.58714 5.91971 8.45853 4.83799 8.45853C3.75627 8.45853 2.85484 7.5571 2.85484 6.47538C2.82479 5.36361 3.72622 4.49223 4.83799 4.49223Z" fill="white"/>
<path d="M17.0975 11.5836C16.3162 11.9742 15.4448 12.2146 14.5134 12.2146C13.3715 12.2146 12.2898 11.884 11.3884 11.2831H7.96296C7.06153 11.884 5.97981 12.2146 4.838 12.2146C3.90652 12.2146 3.03513 12.0042 2.25389 11.5836C1.56279 11.9742 1.08203 12.7554 1.08203 13.5968V20.9284C1.08203 22.2805 2.1938 23.3623 3.5159 23.3623H15.8655C17.2177 23.3623 18.2994 22.2505 18.2994 20.9284V13.5968C18.2693 12.7554 17.7886 11.9742 17.0975 11.5836Z" fill="white"/>
<path d="M14.5135 11.3131C17.1877 11.3131 19.3512 9.14962 19.3512 6.47538C19.3512 3.80113 17.1877 1.6377 14.5135 1.6377C11.8392 1.6377 9.67578 3.80113 9.67578 6.47538C9.67578 9.14962 11.8392 11.3131 14.5135 11.3131ZM14.5135 4.49223C15.6252 4.49223 16.4966 5.39366 16.4966 6.47538C16.4966 7.58714 15.5952 8.45853 14.5135 8.45853C13.4317 8.45853 12.5303 7.5571 12.5303 6.47538C12.5303 5.36361 13.4017 4.49223 14.5135 4.49223Z" fill="white"/>
</g>
<defs>
<clipPath id="clip0">
<rect width="25" height="25" fill="white"/>
</clipPath>
</defs>
</svg>
