<svg width="16" height="16" viewBox="0 0 16 16" fill="none" xmlns="http://www.w3.org/2000/svg">
<path d="M6.54224 9.75331C7.74269 9.13083 8.93266 8.51407 10.1336 7.89126C8.92906 7.26271 7.73941 6.64236 6.54224 6.01758C6.54224 7.26713 6.54224 8.50392 6.54224 9.75331Z" fill="#DBA834"/>
<path d="M8 0C3.58187 0 0 3.58171 0 8C0 12.4183 3.58187 16 8 16C12.4181 16 16 12.4183 16 8C16 3.58171 12.4181 0 8 0ZM13.4508 10.6703C13.3123 11.271 12.821 11.7141 12.2296 11.7801C10.8289 11.9367 9.41144 11.9376 7.99967 11.9367C6.58791 11.9376 5.17009 11.9367 3.76913 11.7801C3.17774 11.7141 2.68669 11.271 2.54854 10.6703C2.35163 9.81459 2.35163 8.88078 2.35163 8C2.35163 7.11922 2.35392 6.18508 2.55083 5.32968C2.68898 4.72896 3.18003 4.28571 3.77142 4.21958C5.17238 4.0631 6.5902 4.06228 8.00196 4.0631C9.4134 4.06228 10.8312 4.0631 12.2317 4.21958C12.8234 4.28571 13.3148 4.7288 13.4529 5.32968C13.6498 6.18525 13.6482 7.11922 13.6482 8C13.6482 8.88078 13.6477 9.81475 13.4508 10.6703Z" fill="#DBA834"/>
</svg>
